# Blender v2.90.0 OBJ File: 'cornell.blend'
# www.blender.org
mtllib cornell.mtl
o 立方体_立方体.003
v -0.026283 0.000000 0.756144
v -0.026283 1.382884 0.756144
v 0.433536 0.000000 -0.470799
v 0.433536 1.382884 -0.470799
v 1.200660 0.000000 1.215963
v 1.200660 1.382884 1.215963
v 1.660479 0.000000 -0.010981
v 1.660479 1.382884 -0.010981
vt 0.375000 0.000000
vt 0.625000 0.000000
vt 0.625000 0.250000
vt 0.375000 0.250000
vt 0.625000 0.500000
vt 0.375000 0.500000
vt 0.625000 0.750000
vt 0.375000 0.750000
vt 0.625000 1.000000
vt 0.375000 1.000000
vt 0.125000 0.500000
vt 0.125000 0.750000
vt 0.875000 0.500000
vt 0.875000 0.750000
vn -0.9364 0.0000 -0.3509
vn 0.3509 0.0000 -0.9364
vn 0.9364 0.0000 0.3509
vn -0.3509 0.0000 0.9364
vn 0.0000 -1.0000 0.0000
vn 0.0000 1.0000 -0.0000
usemtl Material.001
s off
f 1/1/1 2/2/1 4/3/1 3/4/1
f 3/4/2 4/3/2 8/5/2 7/6/2
f 7/6/3 8/5/3 6/7/3 5/8/3
f 5/8/4 6/7/4 2/9/4 1/10/4
f 3/11/5 7/6/5 5/8/5 1/12/5
f 8/5/6 4/13/6 2/14/6 6/7/6
o 立方体.001_立方体.004
v -1.247766 0.000000 -0.050946
v -1.247766 1.846960 -0.050946
v -1.650416 0.000000 -1.262043
v -1.650416 1.846960 -1.262043
v -0.036669 0.000000 -0.453596
v -0.036669 1.846960 -0.453596
v -0.439319 0.000000 -1.664693
v -0.439319 1.846960 -1.664693
vt 0.375000 0.000000
vt 0.625000 0.000000
vt 0.625000 0.250000
vt 0.375000 0.250000
vt 0.625000 0.500000
vt 0.375000 0.500000
vt 0.625000 0.750000
vt 0.375000 0.750000
vt 0.625000 1.000000
vt 0.375000 1.000000
vt 0.125000 0.500000
vt 0.125000 0.750000
vt 0.875000 0.500000
vt 0.875000 0.750000
vn -0.9489 0.0000 0.3155
vn -0.3155 0.0000 -0.9489
vn 0.9489 0.0000 -0.3155
vn 0.3155 0.0000 0.9489
vn 0.0000 -1.0000 0.0000
vn 0.0000 1.0000 0.0000
usemtl Material.001
s off
f 9/15/7 10/16/7 12/17/7 11/18/7
f 11/18/8 12/17/8 16/19/8 15/20/8
f 15/20/9 16/19/9 14/21/9 13/22/9
f 13/22/10 14/21/10 10/23/10 9/24/10
f 11/25/11 15/20/11 13/22/11 9/26/11
f 16/19/12 12/27/12 10/28/12 14/21/12
o 立方体.002_立方体.007
v -2.000000 0.000000 2.000000
v -2.000000 4.000000 2.000000
v -2.000000 0.000000 -2.000000
v -2.000000 4.000000 -2.000000
v 2.000000 0.000000 2.000000
v 2.000000 4.000000 2.000000
v 2.000000 0.000000 -2.000000
v 2.000000 4.000000 -2.000000
vt 0.375000 0.000000
vt 0.375000 0.250000
vt 0.625000 0.250000
vt 0.625000 0.000000
vt 0.375000 0.500000
vt 0.625000 0.500000
vt 0.375000 0.750000
vt 0.625000 0.750000
vt 0.125000 0.500000
vt 0.125000 0.750000
vt 0.875000 0.750000
vt 0.875000 0.500000
vn 1.0000 0.0000 0.0000
vn 0.0000 0.0000 1.0000
vn -1.0000 0.0000 0.0000
vn 0.0000 1.0000 0.0000
vn 0.0000 -1.0000 0.0000
usemtl Material
s off
f 17/29/13 19/30/13 20/31/13 18/32/13
f 19/30/14 23/33/14 24/34/14 20/31/14
f 23/33/15 21/35/15 22/36/15 24/34/15
f 19/37/16 17/38/16 21/35/16 23/33/16
f 24/34/17 22/36/17 18/39/17 20/40/17