# Blender v2.90.0 OBJ File: 'taichi.blend'
# www.blender.org
o TaichiLogo
v 0.000000 0.000000 -0.660000
v -0.031214 0.000000 -0.656926
v -0.061229 0.000000 -0.647821
v -0.088891 0.000000 -0.633035
v -0.113137 0.000000 -0.613137
v -0.133035 0.000000 -0.588891
v -0.147821 0.000000 -0.561229
v -0.156926 0.000000 -0.531214
v -0.160000 0.000000 -0.500000
v -0.156926 0.000000 -0.468786
v -0.147821 0.000000 -0.438771
v -0.133035 0.000000 -0.411109
v -0.113137 0.000000 -0.386863
v -0.088891 0.000000 -0.366965
v -0.061229 0.000000 -0.352179
v -0.031214 0.000000 -0.343074
v 0.000000 0.000000 -0.340000
v 0.031215 0.000000 -0.343074
v 0.061229 0.000000 -0.352179
v 0.088891 0.000000 -0.366965
v 0.113137 0.000000 -0.386863
v 0.133035 0.000000 -0.411109
v 0.147821 0.000000 -0.438771
v 0.156926 0.000000 -0.468786
v 0.160000 0.000000 -0.500000
v 0.156926 0.000000 -0.531215
v 0.147821 0.000000 -0.561229
v 0.133035 0.000000 -0.588891
v 0.113137 0.000000 -0.613137
v 0.088891 0.000000 -0.633035
v 0.061229 0.000000 -0.647821
v 0.031214 0.000000 -0.656926
v 0.000000 0.000000 -1.000000
v 0.000000 0.000000 1.000000
v 0.000000 0.000000 0.000000
v 0.097545 0.000000 -0.009607
v 0.191342 0.000000 -0.038060
v 0.277785 0.000000 -0.084265
v 0.353554 0.000000 -0.146447
v 0.415735 0.000000 -0.222215
v 0.461940 0.000000 -0.308659
v 0.490393 0.000000 -0.402455
v 0.500000 0.000000 -0.500000
v 0.490393 0.000000 -0.597546
v 0.461940 0.000000 -0.691342
v 0.415735 0.000000 -0.777786
v 0.353553 0.000000 -0.853554
v 0.277785 0.000000 -0.915735
v 0.191341 0.000000 -0.961940
v 0.097545 0.000000 -0.990393
v -0.097545 0.000000 0.009607
v -0.191342 0.000000 0.038060
v -0.277785 0.000000 0.084265
v -0.353553 0.000000 0.146447
v -0.415735 0.000000 0.222215
v -0.461940 0.000000 0.308658
v -0.490393 0.000000 0.402455
v -0.500000 0.000000 0.500000
v -0.490393 0.000000 0.597545
v -0.461940 0.000000 0.691342
v -0.415735 0.000000 0.777785
v -0.353554 0.000000 0.853553
v -0.277785 0.000000 0.915735
v -0.191342 0.000000 0.961940
v -0.097545 0.000000 0.990393
v -0.098017 0.000000 -0.995185
v -0.195090 0.000000 -0.980785
v -0.290284 0.000000 -0.956940
v -0.382683 0.000000 -0.923880
v -0.471397 0.000000 -0.881921
v -0.555570 0.000000 -0.831470
v -0.634393 0.000000 -0.773011
v -0.707107 0.000000 -0.707107
v -0.773010 0.000000 -0.634393
v -0.831469 0.000000 -0.555570
v -0.881921 0.000000 -0.471397
v -0.923879 0.000000 -0.382684
v -0.956940 0.000000 -0.290285
v -0.980785 0.000000 -0.195090
v -0.995185 0.000000 -0.098017
v -1.000000 0.000000 -0.000000
v -0.995185 0.000000 0.098017
v -0.980785 0.000000 0.195090
v -0.956940 0.000000 0.290285
v -0.923879 0.000000 0.382684
v -0.881921 0.000000 0.471397
v -0.831470 0.000000 0.555570
v -0.773010 0.000000 0.634393
v -0.707107 0.000000 0.707107
v -0.634393 0.000000 0.773011
v -0.555570 0.000000 0.831470
v -0.471396 0.000000 0.881921
v -0.382683 0.000000 0.923880
v -0.290284 0.000000 0.956940
v -0.195090 0.000000 0.980785
v -0.098017 0.000000 0.995185
vn 0.0000 1.0000 0.0000
s off
f 91//1 61//1 60//1
f 27//1 26//1 45//1
f 35//1 17//1 16//1
f 35//1 16//1 51//1
f 16//1 15//1 51//1
f 51//1 15//1 14//1
f 52//1 51//1 14//1
f 52//1 14//1 13//1
f 53//1 52//1 12//1
f 52//1 13//1 12//1
f 54//1 53//1 78//1
f 53//1 12//1 11//1
f 53//1 11//1 76//1
f 77//1 53//1 76//1
f 55//1 54//1 80//1
f 53//1 77//1 78//1
f 11//1 10//1 75//1
f 56//1 55//1 83//1
f 79//1 54//1 78//1
f 54//1 79//1 80//1
f 10//1 9//1 73//1
f 76//1 11//1 75//1
f 9//1 8//1 72//1
f 10//1 74//1 75//1
f 74//1 10//1 73//1
f 8//1 7//1 71//1
f 2//1 1//1 33//1
f 33//1 66//1 2//1
f 66//1 67//1 3//1
f 2//1 66//1 3//1
f 67//1 68//1 4//1
f 68//1 69//1 5//1
f 67//1 4//1 3//1
f 69//1 70//1 6//1
f 70//1 71//1 7//1
f 71//1 72//1 8//1
f 72//1 73//1 9//1
f 80//1 81//1 55//1
f 81//1 82//1 55//1
f 82//1 83//1 55//1
f 83//1 84//1 56//1
f 84//1 85//1 56//1
f 56//1 85//1 57//1
f 85//1 86//1 57//1
f 86//1 87//1 57//1
f 87//1 88//1 58//1
f 88//1 89//1 59//1
f 58//1 88//1 59//1
f 89//1 90//1 59//1
f 90//1 91//1 60//1
f 59//1 90//1 60//1
f 91//1 92//1 61//1
f 92//1 93//1 62//1
f 93//1 94//1 63//1
f 94//1 95//1 64//1
f 63//1 94//1 64//1
f 95//1 96//1 65//1
f 96//1 34//1 65//1
f 92//1 62//1 61//1
f 87//1 58//1 57//1
f 70//1 7//1 6//1
f 69//1 6//1 5//1
f 68//1 5//1 4//1
f 95//1 65//1 64//1
f 93//1 63//1 62//1
f 17//1 35//1 36//1
f 36//1 37//1 18//1
f 37//1 38//1 19//1
f 36//1 18//1 17//1
f 38//1 39//1 21//1
f 39//1 40//1 22//1
f 40//1 41//1 22//1
f 41//1 42//1 23//1
f 22//1 41//1 23//1
f 42//1 43//1 24//1
f 43//1 44//1 25//1
f 44//1 45//1 26//1
f 45//1 46//1 27//1
f 46//1 47//1 29//1
f 47//1 48//1 30//1
f 31//1 48//1 49//1
f 49//1 50//1 32//1
f 50//1 33//1 1//1
f 50//1 1//1 32//1
f 48//1 31//1 30//1
f 49//1 32//1 31//1
f 23//1 42//1 24//1
f 25//1 44//1 26//1
f 39//1 22//1 21//1
f 18//1 37//1 19//1
f 20//1 19//1 38//1
f 47//1 30//1 29//1
f 21//1 20//1 38//1
f 46//1 29//1 28//1
f 46//1 28//1 27//1
f 24//1 43//1 25//1
